<?xml version="1.0" encoding="utf-8"?>
<svg xmlns="http://www.w3.org/2000/svg" width="32" zoomAndPan="magnify" viewBox="25.092 -1.457 84.347 78.193" height="32" preserveAspectRatio="xMidYMid meet" version="1.2">
  <g id="2261e78ffe">
    <path style="stroke: none; fill-rule: nonzero; fill-opacity: 1; fill: rgb(210, 39, 39);" d="M 75.253906 5.78125 C 71.476562 8.320312 66.628906 12.535156 64.957031 14.765625 C 64.480469 15.40625 63.945312 15.921875 63.757812 15.921875 C 63.574219 15.921875 62.828125 15.175781 62.128906 14.269531 C 59.363281 10.777344 55.792969 7.804688 52.882812 6.625 C 49.164062 5.117188 44.234375 5.140625 40.621094 6.710938 C 35.832031 8.753906 31.890625 13.546875 30.382812 19.101562 C 29.90625 20.898438 29.847656 21.457031 29.847656 24.90625 C 29.847656 28.394531 29.886719 28.890625 30.402344 30.710938 C 32.035156 36.65625 34.46875 39.816406 43.140625 47.234375 C 48.9375 52.210938 52.839844 55.886719 56.183594 59.523438 C 59.484375 63.136719 62.683594 66.855469 63.964844 68.589844 C 65.472656 70.613281 66.277344 71.378906 66.894531 71.378906 C 67.617188 71.378906 67.988281 71.027344 69.558594 68.917969 C 73.769531 63.300781 81.363281 55.183594 88.136719 49.070312 C 90.117188 47.292969 94.492188 43.433594 97.835938 40.519531 C 104.171875 35.003906 104.628906 34.488281 104.648438 32.960938 C 104.648438 31.640625 103.964844 30.667969 101.222656 28.003906 C 99.757812 26.578125 93.976562 20.917969 88.382812 15.40625 C 82.789062 9.890625 78 5.285156 77.753906 5.140625 C 77.03125 4.726562 76.679688 4.808594 75.253906 5.78125 Z M 89.394531 21.207031 C 98.621094 30.316406 100.890625 32.652344 100.707031 32.878906 C 100.355469 33.3125 77.917969 33.3125 77.484375 32.878906 C 77.238281 32.628906 77.195312 30.8125 77.195312 21.332031 C 77.195312 15.15625 77.257812 10.035156 77.339844 9.972656 C 77.402344 9.890625 77.546875 9.828125 77.648438 9.828125 C 77.753906 9.828125 83.035156 14.949219 89.394531 21.207031 Z M 89.394531 21.207031 "/>
    <path style="stroke: none; fill-rule: nonzero; fill-opacity: 1; fill: rgb(210, 39, 39);" d="M 195.878906 21.972656 C 195.878906 27.984375 195.816406 38.621094 195.734375 45.621094 L 195.609375 58.367188 L 206.964844 58.367188 L 206.859375 49.320312 L 206.757812 40.292969 L 214.230469 40.355469 L 221.679688 40.394531 L 221.679688 30.070312 L 206.796875 30.070312 L 206.820312 25.628906 L 206.839844 21.167969 L 214.992188 21.3125 L 223.125 21.457031 L 223.125 11.066406 L 195.878906 11.066406 Z M 195.878906 21.972656 "/>
    <path style="stroke: none; fill-rule: nonzero; fill-opacity: 1; fill: rgb(210, 39, 39);" d="M 251.277344 11.933594 C 251.546875 12.429688 253.527344 15.984375 255.695312 19.84375 C 261.125 29.59375 265.789062 37.835938 266.492188 38.972656 L 267.089844 39.921875 L 267.089844 58.367188 L 277.820312 58.367188 L 277.820312 39.941406 L 282.136719 32.074219 C 289.875 17.882812 292.207031 13.667969 292.953125 12.410156 L 293.675781 11.171875 L 287.667969 11.109375 C 284.363281 11.085938 281.597656 11.128906 281.515625 11.210938 C 281.433594 11.316406 280.15625 13.875 278.6875 16.953125 C 277.222656 20.011719 275.242188 24.101562 274.3125 26.042969 L 272.621094 29.550781 L 272.167969 28.972656 C 271.941406 28.683594 269.835938 24.511719 267.5 19.742188 L 263.292969 11.066406 L 250.761719 11.066406 Z M 251.277344 11.933594 "/>
    <path style="stroke: none; fill-rule: nonzero; fill-opacity: 1; fill: rgb(210, 39, 39);" d="M 228.285156 34.820312 L 228.285156 58.367188 L 256.253906 58.367188 L 256.273438 53.410156 L 256.273438 48.453125 L 239.429688 48.453125 L 239.429688 11.273438 L 228.285156 11.273438 Z M 228.285156 34.820312 "/>
  </g>
</svg>